{
  "accessors": [
    {
      "bufferView": 1,
      "componentType": 5126,
      "count": 650,
      "max": [
        16.940341949462891,
        15.461219787597656,
        46.229385375976562
      ],
      "min": [
        -15.987178802490234,
        -17.466300964355469,
        3.7706162929534912
      ],
      "type": "VEC3"
    },
    {
      "bufferView": 1,
      "byteOffset": 7800,
      "componentType": 5126,
      "count": 650,
      "max": [
        0.9966353178024292,
        0.99663543701171875,
        0.9946637749671936
      ],
      "min": [
        -0.99663543701171875,
        -0.99663543701171875,
        -0.99749314785003662
      ],
      "type": "VEC3"
    },
    {
      "bufferView": 2,
      "componentType": 5126,
      "count": 650,
      "max": [
        0.99980753660202026,
        0.99991077184677124,
        0.89357244968414307,
        1
      ],
      "min": [
        -0.9999845027923584,
        -0.99991077184677124,
        -0.92328637838363647,
        -1
      ],
      "type": "VEC4"
    },
    {
      "bufferView": 2,
      "byteOffset": 10400,
      "componentType": 5126,
      "count": 650,
      "max": [
        1,
        1,
        1,
        1
      ],
      "min": [
        1,
        1,
        1,
        1
      ],
      "type": "VEC4"
    },
    {
      "bufferView": 0,
      "componentType": 5125,
      "count": 2304,
      "max": [
        649
      ],
      "min": [
        0
      ],
      "type": "SCALAR"
    }
  ],
  "asset": {
    "extras": {
      "author": "Sunando Roy (https://sketchfab.com/roysunanda93)",
      "license": "CC-BY-NC-4.0 (http://creativecommons.org/licenses/by-nc/4.0/)",
      "source": "https://sketchfab.com/models/d64895d7ac2e466dbf836674bacf5058",
      "title": "Dino Egg"
    },
    "generator": "Sketchfab-3.18.7",
    "version": "2.0"
  },
  "bufferViews": [
    {
      "buffer": 0,
      "byteLength": 9216,
      "byteOffset": 0,
      "name": "floatBufferViews",
      "target": 34963
    },
    {
      "buffer": 0,
      "byteLength": 15600,
      "byteOffset": 9216,
      "byteStride": 12,
      "name": "floatBufferViews",
      "target": 34962
    },
    {
      "buffer": 0,
      "byteLength": 20800,
      "byteOffset": 24816,
      "byteStride": 16,
      "name": "floatBufferViews",
      "target": 34962
    }
  ],
  "buffers": [
    {
      "byteLength": 45616,
      "uri": "scene.bin"
    }
  ],
  "materials": [
    {
      "doubleSided": true,
      "emissiveFactor": [
        0,
        0,
        0
      ],
      "name": "Scene_-_Root",
      "pbrMetallicRoughness": {
        "baseColorFactor": [
          0.1834848577,
          0.1834848577,
          0.1834848577,
          1
        ],
        "metallicFactor": 0,
        "roughnessFactor": 1
      }
    }
  ],
  "meshes": [
    {
      "primitives": [
        {
          "attributes": {
            "COLOR_0": 3,
            "NORMAL": 1,
            "POSITION": 0,
            "TANGENT": 2
          },
          "indices": 4,
          "material": 0,
          "mode": 4
        }
      ]
    }
  ],
  "nodes": [
    {
      "children": [
        1
      ],
      "name": "RootNode (gltf orientation matrix)",
      "rotation": [
        -0.70710678118654746,
        -0,
        -0,
        0.70710678118654757
      ]
    },
    {
      "children": [
        2
      ],
      "name": "RootNode (model correction matrix)"
    },
    {
      "children": [
        3
      ],
      "matrix": [
        1,
        0,
        0,
        0,
        0,
        1,
        0,
        0,
        0,
        0,
        1,
        0,
        0.47658145427703857,
        -1.0025405883789062,
        0,
        1
      ],
      "name": "Box001"
    },
    {
      "children": [
        4
      ],
      "matrix": [
        1,
        0,
        0,
        0,
        0,
        1,
        0,
        0,
        0,
        0,
        1,
        0,
        -0.47658145427703857,
        1.0025405883789062,
        -0,
        1
      ],
      "name": "3DSMeshMatrix"
    },
    {
      "mesh": 0,
      "name": ""
    }
  ],
  "scene": 0,
  "scenes": [
    {
      "name": "OSG_Scene",
      "nodes": [
        0
      ]
    }
  ]
}

