{
  "accessors": [
    {
      "bufferView": 2,
      "componentType": 5126,
      "count": 65532,
      "max": [
        5.3622150421142578,
        -123.33421325683594,
        4.5716490745544434
      ],
      "min": [
        2.8420159816741943,
        -127.84123992919922,
        2.3853030204772949
      ],
      "type": "VEC3"
    },
    {
      "bufferView": 2,
      "byteOffset": 786384,
      "componentType": 5126,
      "count": 65532,
      "max": [
        0.9999697208404541,
        0.9998776912689209,
        0.99999517202377319
      ],
      "min": [
        -0.99993646144866943,
        -0.99994760751724243,
        -0.99998825788497925
      ],
      "type": "VEC3"
    },
    {
      "bufferView": 3,
      "componentType": 5126,
      "count": 65532,
      "max": [
        0.999980628490448,
        0.99736273288726807,
        0.99998027086257935,
        1
      ],
      "min": [
        -0.99996483325958252,
        -0.99946069717407227,
        -0.99999511241912842,
        -1
      ],
      "type": "VEC4"
    },
    {
      "bufferView": 1,
      "componentType": 5126,
      "count": 65532,
      "max": [
        0.97619497776031494,
        0.99803102016448975
      ],
      "min": [
        0.0035359999164938927,
        0.0036430000327527523
      ],
      "type": "VEC2"
    },
    {
      "bufferView": 0,
      "componentType": 5125,
      "count": 354141,
      "max": [
        65531
      ],
      "min": [
        0
      ],
      "type": "SCALAR"
    },
    {
      "bufferView": 2,
      "byteOffset": 1572768,
      "componentType": 5126,
      "count": 65532,
      "max": [
        5.3520441055297852,
        -125.47834777832031,
        4.4739937782287598
      ],
      "min": [
        1.934939980506897,
        -128.65715026855469,
        1.2693749666213989
      ],
      "type": "VEC3"
    },
    {
      "bufferView": 2,
      "byteOffset": 2359152,
      "componentType": 5126,
      "count": 65532,
      "max": [
        0.99999904632568359,
        0.99999707937240601,
        0.99999499320983887
      ],
      "min": [
        -0.99998462200164795,
        -0.99998605251312256,
        -0.99998939037322998
      ],
      "type": "VEC3"
    },
    {
      "bufferView": 3,
      "byteOffset": 1048512,
      "componentType": 5126,
      "count": 65532,
      "max": [
        0.99977797269821167,
        0.9998321533203125,
        0.99938899278640747,
        1
      ],
      "min": [
        -0.99995392560958862,
        -0.99997246265411377,
        -0.9999992847442627,
        -1
      ],
      "type": "VEC4"
    },
    {
      "bufferView": 1,
      "byteOffset": 524256,
      "componentType": 5126,
      "count": 65532,
      "max": [
        0.99638098478317261,
        0.99579298496246338
      ],
      "min": [
        0.0071029998362064362,
        0.0033080000430345535
      ],
      "type": "VEC2"
    },
    {
      "bufferView": 0,
      "byteOffset": 1416564,
      "componentType": 5125,
      "count": 337791,
      "max": [
        65531
      ],
      "min": [
        0
      ],
      "type": "SCALAR"
    },
    {
      "bufferView": 2,
      "byteOffset": 3145536,
      "componentType": 5126,
      "count": 26437,
      "max": [
        5.321742057800293,
        -126.30731201171875,
        3.1722939014434814
      ],
      "min": [
        2.0390899181365967,
        -128.65736389160156,
        1.4346170425415039
      ],
      "type": "VEC3"
    },
    {
      "bufferView": 2,
      "byteOffset": 3462780,
      "componentType": 5126,
      "count": 26437,
      "max": [
        0.99973469972610474,
        0.99999707937240601,
        0.99985086917877197
      ],
      "min": [
        -0.99924635887145996,
        -0.99999547004699707,
        -0.99994993209838867
      ],
      "type": "VEC3"
    },
    {
      "bufferView": 3,
      "byteOffset": 2097024,
      "componentType": 5126,
      "count": 26437,
      "max": [
        0.99989259243011475,
        0.99973601102828979,
        0.99758392572402954,
        1
      ],
      "min": [
        -0.99972063302993774,
        -0.9999011754989624,
        -0.9998784065246582,
        -1
      ],
      "type": "VEC4"
    },
    {
      "bufferView": 1,
      "byteOffset": 1048512,
      "componentType": 5126,
      "count": 26437,
      "max": [
        0.99678301811218262,
        0.99700897932052612
      ],
      "min": [
        0.0068120001815259457,
        0.0037640000227838755
      ],
      "type": "VEC2"
    },
    {
      "bufferView": 0,
      "byteOffset": 2767728,
      "componentType": 5125,
      "count": 117825,
      "max": [
        26436
      ],
      "min": [
        0
      ],
      "type": "SCALAR"
    }
  ],
  "asset": {
    "extras": {
      "author": "dicatta (https://sketchfab.com/dicatta)",
      "license": "CC-BY-4.0 (http://creativecommons.org/licenses/by/4.0/)",
      "source": "https://sketchfab.com/models/d2b7132bfe264f108f217b607fa0a774",
      "title": "Dilophosaurus Scan"
    },
    "generator": "Sketchfab-3.20.7",
    "version": "2.0"
  },
  "bufferViews": [
    {
      "buffer": 0,
      "byteLength": 3239028,
      "byteOffset": 0,
      "name": "floatBufferViews",
      "target": 34963
    },
    {
      "buffer": 0,
      "byteLength": 1260008,
      "byteOffset": 3239028,
      "byteStride": 8,
      "name": "floatBufferViews",
      "target": 34962
    },
    {
      "buffer": 0,
      "byteLength": 3780024,
      "byteOffset": 4499036,
      "byteStride": 12,
      "name": "floatBufferViews",
      "target": 34962
    },
    {
      "buffer": 0,
      "byteLength": 2520016,
      "byteOffset": 8279060,
      "byteStride": 16,
      "name": "floatBufferViews",
      "target": 34962
    }
  ],
  "buffers": [
    {
      "byteLength": 10799076,
      "uri": "scene.bin"
    }
  ],
  "images": [
    {
      "uri": "textures/Diplo_01_baseColor.jpeg"
    }
  ],
  "materials": [
    {
      "doubleSided": true,
      "emissiveFactor": [
        0,
        0,
        0
      ],
      "name": "Diplo_01",
      "pbrMetallicRoughness": {
        "baseColorFactor": [
          1,
          1,
          1,
          1
        ],
        "baseColorTexture": {
          "index": 0,
          "texCoord": 0
        },
        "metallicFactor": 0,
        "roughnessFactor": 0.59999999999999998
      }
    }
  ],
  "meshes": [
    {
      "primitives": [
        {
          "attributes": {
            "NORMAL": 1,
            "POSITION": 0,
            "TANGENT": 2,
            "TEXCOORD_0": 3
          },
          "indices": 4,
          "material": 0,
          "mode": 4
        }
      ]
    },
    {
      "primitives": [
        {
          "attributes": {
            "NORMAL": 6,
            "POSITION": 5,
            "TANGENT": 7,
            "TEXCOORD_0": 8
          },
          "indices": 9,
          "material": 0,
          "mode": 4
        }
      ]
    },
    {
      "primitives": [
        {
          "attributes": {
            "NORMAL": 11,
            "POSITION": 10,
            "TANGENT": 12,
            "TEXCOORD_0": 13
          },
          "indices": 14,
          "material": 0,
          "mode": 4
        }
      ]
    }
  ],
  "nodes": [
    {
      "children": [
        1
      ],
      "name": "RootNode (gltf orientation matrix)",
      "rotation": [
        -0.70710678118654746,
        -0,
        -0,
        0.70710678118654757
      ]
    },
    {
      "children": [
        2
      ],
      "matrix": [
        0.43292823433876038,
        -0.32081043720245361,
        -0.84240949153900146,
        0,
        -0.4714285135269165,
        0.715961754322052,
        -0.51493096351623535,
        0,
        0.76832824945449829,
        0.62006402015686035,
        0.15872086584568024,
        0,
        -59.572734832763672,
        -36.427909851074219,
        -59.348392486572266,
        1
      ],
      "name": "RootNode (model correction matrix)"
    },
    {
      "children": [
        3,
        4,
        5
      ],
      "name": "Diplo 01.obj.cleaner.materialmerger.gles"
    },
    {
      "mesh": 0,
      "name": ""
    },
    {
      "mesh": 1,
      "name": ""
    },
    {
      "mesh": 2,
      "name": ""
    }
  ],
  "samplers": [
    {
      "magFilter": 9729,
      "minFilter": 9987,
      "wrapS": 10497,
      "wrapT": 10497
    }
  ],
  "scene": 0,
  "scenes": [
    {
      "name": "OSG_Scene",
      "nodes": [
        0
      ]
    }
  ],
  "textures": [
    {
      "sampler": 0,
      "source": 0
    }
  ]
}

